# xmcd
#
# Track frame offsets:
#	150
#	8030
#	19926
#	32388
#	45781
#	57632
#	69094
#	81292
#	97378
#	109061
#	120677
#	134173
#	152759
#	165141
#	177310
#	192465
#	203310
#	217309
#	233690
#	246789
#	262424
#	273947
#	286083
#	299361
#
# Disc length: 4186 seconds
#
# Revision: 0
# Processed by: cddbd v1.5.2PL0 Copyright (c) Steve Scherf et al.
# Submitted via: EasyCDDAExtractor 16.1.0.1
#
DISCID=5a105818
DTITLE=Glen Campbell - The Definitive Collection
DYEAR=2013
DGENRE=Country
TTITLE0=Kentucky Means Paradise (With The Green River Boys)
TTITLE1=Too Late To Worry, Too Blue To Cry
TTITLE2=By The Time I Get To Phoenix
TTITLE3=Gentle On My Mind
TTITLE4=Dreams Of The Everyday Housewife
TTITLE5=True Grit
TTITLE6=Galveston
TTITLE7=Oh Happy Day
TTITLE8=All I Have To Do Is Dream
TTITLE9=Everything A Man Could Ever Need
TTITLE10=Oklahoma Sunday Morning
TTITLE11=The Last Time I Saw Her
TTITLE12=I Will Never Pass This Way Again
TTITLE13=Manhattan Kansas
TTITLE14=One Last Time
TTITLE15=It's A Sin When You Love Somebody
TTITLE16=Country Boy (You Got Your Feet In L.A.)
TTITLE17=See You On Sunday
TTITLE18=Sunflower
TTITLE19=I'm Gonna Love You
TTITLE20=Another Fine Mess
TTITLE21=My Prayer
TTITLE22=Dream Lover (With Tanya Tucker)
TTITLE23=Hollywood Smiles
EXTD=
EXTT0=
EXTT1=
EXTT2=
EXTT3=
EXTT4=
EXTT5=
EXTT6=
EXTT7=
EXTT8=
EXTT9=
EXTT10=
EXTT11=
EXTT12=
EXTT13=
EXTT14=
EXTT15=
EXTT16=
EXTT17=
EXTT18=
EXTT19=
EXTT20=
EXTT21=
EXTT22=
EXTT23=
PLAYORDER=
